<?xml version="1.0" encoding="utf-8"?>
<!-- Generator: Adobe Illustrator 26.4.1, SVG Export Plug-In . SVG Version: 6.00 Build 0)  -->
<svg version="1.0" id="LOGO" xmlns="http://www.w3.org/2000/svg" xmlns:xlink="http://www.w3.org/1999/xlink" x="0px" y="0px"
	 viewBox="0 0 1920 1186.7" enable-background="new 0 0 1920 1186.7" xml:space="preserve">
<g>
	<defs>
		<rect id="SVGID_1_" width="1920" height="1186.7"/>
	</defs>
	<clipPath id="SVGID_00000141443659988538977960000007366161767594301853_">
		<use xlink:href="#SVGID_1_"  overflow="visible"/>
	</clipPath>
	
		<rect display="none" clip-path="url(#SVGID_00000141443659988538977960000007366161767594301853_)" fill="#FFFFFF" width="1920" height="1186.7"/>
	<g id="CAR" clip-path="url(#SVGID_00000141443659988538977960000007366161767594301853_)">
		<g id="RODA_02">
			<g>
				<circle fill="#11566C" cx="1509.2" cy="428.3" r="13.9"/>
				<path fill="#11566C" stroke="#11566C" stroke-width="2" stroke-miterlimit="10" d="M1510,296.1c72.6,0,131.7,59.1,131.7,131.7
					s-59.1,131.7-131.7,131.7s-131.7-59.1-131.7-131.7S1437.4,296.1,1510,296.1z M1636.7,427.8c0-69.9-56.8-126.7-126.7-126.7
					s-126.7,56.8-126.7,126.7s56.8,126.7,126.7,126.7S1636.7,497.7,1636.7,427.8z"/>
				<path fill="#11566C" d="M1510,301.1c69.9,0,126.7,56.8,126.7,126.7s-56.8,126.7-126.7,126.7s-126.7-56.9-126.7-126.7
					S1440.1,301.1,1510,301.1z M1618.5,427.8c0-59.9-48.6-108.5-108.5-108.5c-59.9,0-108.5,48.6-108.5,108.5
					c0,59.9,48.6,108.5,108.5,108.5C1569.9,536.3,1618.5,487.7,1618.5,427.8z"/>
				<path fill="#11566C" d="M1510,319.3c59.9,0,108.5,48.6,108.5,108.5c0,59.9-48.6,108.5-108.5,108.5
					c-59.9,0-108.5-48.6-108.5-108.5C1401.5,367.9,1450.1,319.3,1510,319.3z M1602.7,475.3c7.2-14.2,11.3-30.2,11.3-47.2
					c0-23-7.5-44.3-20.1-61.5l-61.2,57.9c-1.4,1.3-1.2,3.6,0.4,4.6L1602.7,475.3z M1600.8,478.7l-73.5-48c-2.7-1.7-2.9-5.5-0.6-7.6
					l65.2-59c-2-2.6-4.4-5.3-6.6-7.7l0,0l-67.5,55.2c-2.4,2-7.4,1.1-8.8-1.7l-37.5-78.4l0,0c-2.6,1-5.4,2.3-7.9,3.5l0,0l31.9,81.3
					c1.2,2.9-0.8,6.1-3.9,6.6l-85.4,11.6c0.2,2.9,0.5,6.1,0.9,9h0l85.6-5.3c3.2-0.2,5.7,2.6,5,5.8l-16.1,84.1
					c2.9,0.8,5.8,1.6,8.8,2.1l22.1-83.7c0.8-3.1,4.3-4.5,7.1-3l75.7,43.2l0,0C1597.2,484.3,1599.3,481.4,1600.8,478.7z
					 M1593.8,489.7l-73.3-40c-1.7-0.9-3.8,0-4.3,1.9L1495,531c4.9,0.7,9.9,1.1,15,1.1C1544.4,532.1,1574.8,515.4,1593.8,489.7z
					 M1516.4,406.8l65.9-53.5c-18.7-18.1-44.2-29.2-72.3-29.2c-11.9,0-23.4,2-34.1,5.7l35.9,76
					C1512.7,407.5,1514.9,408.1,1516.4,406.8z M1492.7,446c0.3-1.9-1.2-3.6-3.1-3.5l-1.7,0.1l-80,5.1c7.2,37.5,34.4,67.8,70.1,79.3
					l14.4-79.4L1492.7,446z M1488,419c1.9-0.2,3.1-2.3,2.4-4.1l-31.4-77.4c-31.6,17.8-53,51.7-53,90.6c0,0.5,0,1,0,1.4L1488,419z"/>
			</g>
		</g>
		<g id="RODA_01">
			<g>
				<circle fill="#11566C" cx="464" cy="426" r="13.9"/>
				<path fill="#11566C" stroke="#11566C" stroke-width="2" stroke-miterlimit="10" d="M464.8,293.8c72.6,0,131.7,59.1,131.7,131.7
					s-59.1,131.7-131.7,131.7s-131.7-59.1-131.7-131.7S392.1,293.8,464.8,293.8z M591.5,425.5c0-69.9-56.8-126.7-126.7-126.7
					s-126.7,56.9-126.7,126.7s56.9,126.7,126.7,126.7S591.5,495.4,591.5,425.5z"/>
				<path fill="#11566C" d="M464.8,298.8c69.9,0,126.7,56.9,126.7,126.7s-56.8,126.7-126.7,126.7s-126.7-56.8-126.7-126.7
					S394.9,298.8,464.8,298.8z M573.3,425.5c0-59.9-48.6-108.5-108.5-108.5c-59.9,0-108.5,48.6-108.5,108.5
					c0,59.9,48.6,108.5,108.5,108.5C524.7,534,573.3,485.5,573.3,425.5z"/>
				<path fill="#11566C" d="M464.8,317c59.9,0,108.5,48.6,108.5,108.5c0,59.9-48.6,108.5-108.5,108.5
					c-59.9,0-108.5-48.6-108.5-108.5C356.3,365.6,404.9,317,464.8,317z M557.5,473c7.2-14.2,11.3-30.2,11.3-47.2
					c0-23-7.5-44.3-20.1-61.5l-61.2,57.9c-1.4,1.3-1.2,3.6,0.4,4.7L557.5,473z M555.6,476.5l-73.5-48c-2.7-1.7-2.9-5.5-0.6-7.6
					l65.2-59c-2-2.6-4.4-5.3-6.6-7.7l0,0l-67.5,55.2c-2.4,2-7.4,1.1-8.8-1.7l-37.5-78.4l0,0c-2.6,1-5.4,2.3-7.9,3.5l0,0l31.9,81.3
					c1.2,2.9-0.8,6.1-3.9,6.6L361,432.2c0.2,2.9,0.5,6.1,0.9,9h0l85.6-5.3c3.2-0.2,5.6,2.6,5,5.8l-16.1,84.1
					c2.9,0.8,5.8,1.6,8.8,2.1l22.1-83.7c0.8-3.1,4.3-4.5,7.1-3l75.7,43.2l0,0C552,482,554.1,479.1,555.6,476.5z M548.6,487.4
					l-73.3-40c-1.7-0.9-3.8,0-4.3,1.9l-21.1,79.5c4.9,0.7,9.9,1.1,15,1.1C499.1,529.8,529.6,513.1,548.6,487.4z M471.2,404.6
					l65.9-53.5c-18.7-18.1-44.2-29.2-72.3-29.2c-11.9,0-23.4,2-34.1,5.7l35.9,76C467.5,405.3,469.7,405.8,471.2,404.6z M447.5,443.7
					c0.4-1.9-1.2-3.6-3.1-3.5l-1.7,0.1l-80,5.1c7.2,37.5,34.4,67.8,70.1,79.3l14.4-79.4L447.5,443.7z M442.8,416.7
					c1.9-0.2,3.1-2.3,2.4-4.1l-31.4-77.4c-31.6,17.8-53,51.7-53,90.6c0,0.5,0,1,0,1.4L442.8,416.7z"/>
			</g>
		</g>
		<path display="none" fill="#11566C" d="M1824,541.3c-141.1,46.4-438.3,89.5-786.8,87.2c-402.3-2.7-744.9-60.9-846.8-121.3
			c74.1,99.5,417.1,154.7,828.2,157.5C1397.1,667.2,1716.7,627.9,1824,541.3z"/>
		<polygon fill="#11566C" points="382.3,63.5 797.1,96.9 787.6,68.4 		"/>
		<polygon display="none" fill="#11566C" points="-60,182.8 336.1,228.3 339.6,198.3 		"/>
		<polygon fill="#11566C" points="116,117.1 512.1,162.6 515.6,132.7 		"/>
		<path fill="#11566C" d="M236.7,441c2.1,4,4.1,7.3,6.1,10l-13.8-2.2l-90.1-14.6l86,6L236.7,441z"/>
		<path fill="#11566C" d="M61.1,459.6c37.3,8.6,75.1,14.7,113,20.2c35.4,5.2,72.8,7.5,107.5,16.1c-3.9-4.3-17.2-22.2-22.6-22.6
			c-61.7-4.3-123.4-8.6-185-12.9C69.6,460.1,65.3,459.8,61.1,459.6z"/>
		<path fill="#11566C" d="M895.2,475.9H751.5l29.6,21.9H676.9l-64.7-3.3l137.1-3.3L731.8,477H601.2c0,0,5.5-31.8,4.4-48.3
			c-1.1-16.5-7.7-38.4-7.7-38.4c-9.9-27.4-39.1-54.4-49.4-60.3c-7.7-4.4-35-25.2-77.9-25.2c-46.1,0-72.6,10-93.2,27.4
			c-41.7,35.1-49.3,78.1-52.6,89.9c-0.8,2.7-2.7,12.8-3.7,24.7c-0.3,3.4-0.5,6.9-0.6,10.4c-0.1,2.1-0.1,4.2-0.1,6.3
			c-0.2,17.2,1.2,33.2,1.2,33.2s-21.9,1.7-34,0c-15.4-2.2-31.2-11.5-41.7-21.9c-5.1-5.1-11.5-15.3-16.9-26c-1.5-2.9-2.8-5.8-4.1-8.6
			c-2.2-4.8-4-9.5-5.3-13.6c-11-34-9.5-80.1-9.9-91c-1.1-31.8,4.4-64.7,4.4-64.7l1.1,20.8c0,0,0,54.8,6.6,99.8
			c3.4,22.9,9.3,38.7,15,49.5c2.1,4,4.1,7.3,6.1,10c3.1,4.5,5.8,7.5,7.5,9.5c2.3,2.8,7.9,8.1,14.3,12.1c8.4,5.2,21.9,8.8,21.9,8.8
			l18.6,2.2c0,0-1.1-10.9-1.4-22.7c-0.1-4.6,0-9.2,0.3-13.5c0-0.6,0.1-1.1,0.1-1.7c1-14.8,1.7-30.4,11.9-59.7
			c8.8-25.2,23.8-50.1,49.4-69.1c34-25.2,75.7-33.3,99.8-34c36.2-1.1,62.8,10.3,81.2,19.7c45,23,61.4,55.9,72.4,81.2
			c11,25.2,6.6,72.4,6.6,72.4l87.7,2.2c0,0-12.8-16.7-20.8-27.4c-9.9-13.2-18.4-33.3-25.2-53.7c-1.7-5.1-4.3-15.2-5.5-23
			c-3.3-22.9-3.3-46.1-3.3-52.6c0-8.8,4.4-45,4.4-45s0,48.3,3.3,68c1.8,10.9,4.4,26.3,13.2,52.6c3.4,10.3,9.8,26.6,18.6,40.6
			c13.8,21.9,30.7,40.6,30.7,40.6s148.1,4.4,181,4.4c10.9,0,64.6,2.4,92.1,3.3c32.9,1.1,123,3.7,134.9,5.5L895.2,475.9z"/>
		<path fill="#11566C" d="M1371.2,509.6c-52-4.3-104-8.2-156-11.8c-29.6-2-59.4-2.9-88.9-5.8c5.6-1.2,12.6-0.4,18.5-0.5
			c6.4-0.1,12.8-0.2,19.3-0.3c12.8-0.2,25.7-0.4,38.5-0.4c25.7-0.1,51.3,0.3,77,1.6c13.1,0.7,26.1,1.6,39.1,2.7
			c3.2,0.3,37,3.2,38.2,4.3c-1.8-3.3-3.3-6.8-4.6-10.3c-1.6-4.3-2.9-8.7-4-13.1c-1.7-7.5-2.7-15.2-3.2-22.9
			c-0.1-2.4-0.2-4.9-0.2-7.3c0-3.5,0-7,0.2-10.4c0.6-13.1,2.6-26.7,10.1-37.3c-4.1,15.7-5.4,32-4.1,48.1c0.2,2.7,0.5,5.4,0.9,8
			c1,7.6,2.6,15.1,4.8,22.4c1.4,4.8,3.1,9.5,5,14.1C1364.4,497.3,1367.6,503.5,1371.2,509.6z"/>
		<path fill="#11566C" d="M1346.4,341.1c-77.2-9.9-159.3-22.7-254.1-27.9c-31.8-1.7-59.7-4.6-89.6-5.1c-29.8-2.7-63.7-4-95.4-4.9
			c-62.5-1.7-120.6-3.9-174.4-2.8c67.3-16.3,189.5-18.5,326.8-11C1176.5,295.8,1278.8,319,1346.4,341.1z"/>
		<path fill="#11566C" d="M1352,454.4l-6.8-1.1l-79.1-12.8l78.9,5.5l6.2,0.4C1351.3,449,1351.6,451.7,1352,454.4z"/>
		<path fill="#11566C" d="M1361.8,490.8l-9.5-1.5l-138.9-22.5l134.9,9.4l8.5,0.6C1358.2,481.5,1359.9,486.2,1361.8,490.8z"/>
		<polygon display="none" fill="#11566C" points="421.2,91.9 643.5,127.9 621.2,105.8 		"/>
		<path fill="#FB9949" d="M1734.2,357.5c0,0-1.1-6.6-13.2-23c-12.5-17-37.3-31.8-37.3-31.8s13.3,10.8,16.5,15.4
			c3.1,4.5,13.3,12.2,8.8,15.4s-25.2-7.7-25.2-7.7s-39.9-20.5-40.6-21.9s17.8,13.9,31.5,25.2c7.8,6.4,39.1,22.1,45.3,24.2
			C1726.2,355.2,1734.2,357.5,1734.2,357.5z"/>
		<path fill="#FB9949" d="M520.6,281.2c-27.1-16.5-60.6-19.5-92.2-16c-22.7,2.5-45.8,8.5-63.2,23.2c-0.3,0.2-5.1-2.7-5.7-3
			c-2-1-4-2-6-3c-4-2-8-3.8-12.1-5.6c-8.1-3.6-16.4-6.9-24.7-9.9c-7.7-2.8-29.6-8.4-49.1-10.3c-22.9-2.2-43.2-0.5-44.2-0.6
			c-0.6-0.1,31.8,5.2,58.6,12.7c20.7,5.8,36,13.5,43.2,16.8c14.1,6.5,27.9,13.5,41.6,20.8c6.3-6.7,14.4-11.4,22.7-15.3
			C430,271.6,477.7,268.1,520.6,281.2z"/>
		<path fill="#11566C" d="M1803.3,489.1l-14.2-26.3l-5.5-15.3c0,0,0-16.5,3.3-21.9c3.3-5.5,14.3-21.9,9.9-38.4
			c-4.4-16.5-24.1-29.6-29.6-34c-5.5-4.4-35.1-19.8-35.1-19.8s-6.6,1.1-3.3,6.6c3.3,5.5,4.4,7.7,7.7,12.1c3.3,4.4,2.2,8.8,2.2,8.8
			s3.3,2.2-8.8,0c-12.1-2.2-52.6-26.3-60.3-31.8c-7.7-5.5-23-16.5-27.4-20.8c-4.4-4.4-18.6-13.2-18.6-13.2s9.9,0,12.1,1.1
			c2.2,1.1,17.6,4.4,20.8,6.6c3.3,2.2,12.1,3.3,17.5,3.3c5.5,0,7.7-6.6,7.7-6.6s-48.2-25.2-73.5-32.9
			c-25.2-7.7-112.2-22.2-153.5-27.4c-35.1-4.4-143.7-27.4-160.1-37.3s-117.3-65.8-138.2-75.7c-22.6-10.7-106.4-45-185.3-54.8
			c-79-9.9-153.5-9.9-207.3-2.2c-49,7-218.2,42.8-352,81.2c-53.3,15.3-182.1,26.3-182.1,26.3l13.2,19.7c0,0,14.7,15.1,31.8,21.9
			c11,4.4,61.4,11,61.4,11s74.6,7.3,133.8,4.4c21.9-1.1,123-3.3,132.7-3.3c10.8,0,118.9-2.3,222.6,1.1c85.5,2.8,168,11.5,190.8,11
			c50.4-1.1,195.2,18.6,236.9,24.1c30.4,4,91.7,13,141.5,21.9c41.1,7.4,74.6,15.4,74.6,15.4s122.8,25.2,171.1,97.6
			c22.2,33.3,29,57.9,32.9,75.7c5,22.8,3.3,34,3.3,34s26.3,3.3,36.2,4.4c9.9,1.1,47.2,4.4,55.9,4.4c8.8,0,23-1.1,27.4-3.3
			c4.4-2.2,8.8-6.6,9.9-14.3C1806.6,494.6,1803.3,489.1,1803.3,489.1z M1701.5,447.5c-17.4-22.5-26.9-50.3-43.4-73.5
			c-33.9-48-92.7-71.2-149.4-86.6c-93.7-25.4-190.7-36.2-287.3-45.7c-147.5-14.5-295.7-26.1-441.5-53.8c-36.7-7-73.2-15-109.4-24.2
			c-8.5-2.2-28.8-3.6-29-12.1c-0.1-1.6,0.6-3.5,2.2-5.6c6-8.2,36.5-13.3,46.3-16.3c60.3-18.8,123.2-28.9,186.3-30.6
			c140.1-3.8,281.7,33.9,399.2,110.7c-46,1.8-91.9,3.7-137.9,5.5c108.1,18.8,217.9,27.7,325.1,51.2
			c107.2,23.6,213.6,63.3,296.2,135.5c2.9,2.5,5.8,5.3,6.8,9c3.6,13.8-19.7,16.8-28.4,28.1c-6.8,8.9-2.6,22.7,6.3,29.6
			c8.9,6.8,20.7,8.2,31.9,8.1C1749.1,487.1,1718.9,470.1,1701.5,447.5z"/>
		
			<linearGradient id="SVGID_00000172403837582979276620000011976759410775003031_" gradientUnits="userSpaceOnUse" x1="207.2625" y1="222.4944" x2="268.8239" y2="222.4944" gradientTransform="matrix(0.9278 0.373 0.373 -0.9278 -65.6971 332.1237)">
			<stop  offset="0" style="stop-color:#FB8149"/>
			<stop  offset="0.1024" style="stop-color:#FB8B49"/>
			<stop  offset="0.5187" style="stop-color:#FB9649"/>
			<stop  offset="1" style="stop-color:#FB9949"/>
		</linearGradient>
		<path fill="url(#SVGID_00000172403837582979276620000011976759410775003031_)" d="M245.5,242.5c-3.8-2-7-5.2-9.7-8.5
			c-4.7-5.7-9.1-11.6-12.7-18.1c-5.8-10.4-5.3-23.1-4.7-34.7c3.9,7.2,9.6,17.6,12.3,20.4c5.7,6.1,10.8,9.4,17.2,14.8
			c5.1,4.2,13,8.7,14.4,15.8c1.2,6.2-3.3,12.8-9.8,12.4C249.9,244.4,247.6,243.7,245.5,242.5z"/>
	</g>
	<g id="TEXT" clip-path="url(#SVGID_00000141443659988538977960000007366161767594301853_)">
		<g>
			<path fill="#11566C" d="M311.1,833.2c-15.1-6.2-27.2-15.4-36.3-27.5c-9.1-12.2-13.8-26.8-14.3-43.9h67.7
				c1,9.7,4.3,17.1,10.1,22.1c5.7,5.1,13.1,7.6,22.3,7.6c9.4,0,16.9-2.2,22.3-6.5c5.5-4.3,8.2-10.4,8.2-18.1c0-6.5-2.2-11.8-6.5-16
				c-4.3-4.2-9.7-7.7-16-10.4c-6.3-2.7-15.3-5.8-27-9.3c-16.9-5.2-30.7-10.4-41.3-15.6c-10.7-5.2-19.9-12.9-27.5-23.1
				c-7.7-10.2-11.5-23.5-11.5-39.8c0-24.3,8.8-43.4,26.4-57.1c17.6-13.8,40.6-20.7,68.9-20.7c28.8,0,52,6.9,69.6,20.7
				c17.6,13.8,27,32.9,28.3,57.5h-68.9c-0.5-8.4-3.6-15.1-9.3-19.9c-5.7-4.8-13-7.3-22-7.3c-7.7,0-13.9,2-18.6,6.1
				c-4.7,4.1-7.1,10-7.1,17.7c0,8.4,4,15,11.9,19.7c7.9,4.7,20.3,9.8,37.2,15.3c16.9,5.7,30.6,11.2,41.1,16.4
				c10.5,5.2,19.7,12.8,27.4,22.7c7.7,9.9,11.5,22.7,11.5,38.3c0,14.9-3.8,28.4-11.4,40.6c-7.6,12.2-18.6,21.8-32.9,29
				c-14.4,7.2-31.4,10.8-51,10.8C343.4,842.5,326.2,839.4,311.1,833.2z"/>
			<path fill="#11566C" d="M659.5,793.7H562l-15.6,46.2h-66.6l94.5-261.3H648l94.5,261.3h-67.4L659.5,793.7z M643.1,744.6
				l-32.4-95.7l-32,95.7H643.1z"/>
			<path fill="#11566C" d="M1004.9,839.9h-63.7L834.8,678.7v161.2h-63.7V578.6h63.7l106.5,161.9V578.6h63.7V839.9z"/>
			<path fill="#11566C" d="M1239.1,578.6v51h-69.2v210.3h-63.7V629.6h-69.2v-51H1239.1z"/>
			<path fill="#11566C" d="M1334.7,578.6v261.3h-63.7V578.6H1334.7z"/>
		</g>
		<g>
			<path fill="#FB9949" d="M854,942.2l-60,169.9h-26.6l-59.7-169.9h26.4l36.4,106.6c2.1,5.7,4,12,5.9,18.8c1.9,6.8,3.3,13,4.3,18.6
				c1-5.5,2.4-11.7,4.3-18.6c1.9-6.8,3.9-13.2,5.9-19l36.4-106.4H854z"/>
			<path fill="#FB9949" d="M919.5,981.4c16.8,0,30.1,5.2,39.7,15.6c9.7,10.4,14.5,24.5,14.5,42.5v13.8h-86.1
				c0.3,13.2,3.8,23.2,10.3,30.2c6.6,7,15.8,10.5,27.7,10.5c8.2,0,15.6-0.8,22-2.3c6.4-1.5,13-3.8,19.9-6.8v20.9
				c-6.5,2.9-13,5-19.5,6.4c-6.5,1.4-14.3,2.1-23.3,2.1c-12.5,0-23.5-2.5-33-7.4c-9.4-4.9-16.8-12.3-22.1-22c-5.3-9.8-8-21.8-8-36
				c0-14.4,2.4-26.6,7.3-36.6c4.8-10,11.6-17.6,20.2-23C897.8,984.1,907.9,981.4,919.5,981.4z M919.5,1001c-9,0-16.3,2.9-21.8,8.8
				c-5.5,5.9-8.7,14.2-9.6,25h60.4c-0.2-10-2.6-18.1-7.3-24.4C936.6,1004.1,929.3,1001,919.5,1001z"/>
			<path fill="#FB9949" d="M1057.5,932.2c-2.4,2.9-5.7,6.6-10,11.2c-4.3,4.6-8.9,9.1-13.8,13.6c-4.9,4.4-9.3,8.1-13.1,10.9h-16.7
				V965c2.4-3,5.1-6.6,8.1-10.7c3-4.1,5.9-8.4,8.8-12.7c2.9-4.4,5.2-8.3,7.1-11.8h29.5V932.2z M1030.3,1112.1h-25.2V983.8h25.2
				V1112.1z"/>
			<path fill="#FB9949" d="M1121.5,1114.4c-17.8,0-32-5.3-42.8-15.8c-10.8-10.5-16.2-27.2-16.2-49.8c0-15.9,2.6-28.7,7.9-38.5
				c5.2-9.8,12.5-17.1,21.7-21.8c9.2-4.7,19.7-7,31.4-7c7.1,0,13.8,0.8,20.1,2.3c6.3,1.5,11.5,3.2,15.6,5.1l-7.6,20.5
				c-4.4-1.7-9.2-3.2-14.2-4.5c-5-1.3-9.7-1.9-14.2-1.9c-23.2,0-34.7,15.2-34.7,45.7c0,14.6,2.9,25.7,8.6,33.3
				c5.7,7.6,14.1,11.4,25.2,11.4c7.1,0,13.4-0.8,18.9-2.4c5.5-1.6,10.5-3.6,15.1-6.2v21.9c-4.6,2.7-9.6,4.7-15,5.9
				C1135.8,1113.8,1129.2,1114.4,1121.5,1114.4z"/>
			<path fill="#FB9949" d="M1296.8,983.8v128.2h-20.2l-3.6-16.9h-1.2c-4.1,6.7-9.8,11.5-17.1,14.6c-7.3,3.1-15,4.6-23.1,4.6
				c-15.1,0-26.6-3.7-34.5-11.2c-7.9-7.5-11.9-19.3-11.9-35.5v-84h25.5v80.2c0,19.8,8.6,29.7,25.9,29.7c13.2,0,22.3-3.9,27.4-11.7
				c5.1-7.8,7.6-18.9,7.6-33.3v-65H1296.8z"/>
			<path fill="#FB9949" d="M1361.5,1112.1h-25.2V931.2h25.2V1112.1z"/>
			<path fill="#FB9949" d="M1514,1047.8c0,21.3-5.5,37.7-16.4,49.3c-10.9,11.6-25.7,17.4-44.3,17.4c-11.6,0-21.9-2.6-30.8-7.9
				c-9-5.2-16-12.8-21.2-22.7c-5.2-9.9-7.7-21.9-7.7-36c0-21.3,5.4-37.6,16.2-49.1c10.8-11.5,25.5-17.2,44.3-17.2
				c11.7,0,22.1,2.6,31,7.7c9,5.2,16,12.7,21.2,22.5C1511.5,1021.5,1514,1033.5,1514,1047.8z M1419.6,1047.8
				c0,14.4,2.7,25.7,8.2,33.8c5.5,8.1,14.2,12.1,26.1,12.1s20.6-4,26.1-12.1c5.5-8.1,8.2-19.4,8.2-33.8c0-14.6-2.8-25.8-8.3-33.7
				c-5.6-7.9-14.3-11.8-26.2-11.8s-20.5,3.9-25.9,11.8C1422.3,1022,1419.6,1033.2,1419.6,1047.8z"/>
			<path fill="#FB9949" d="M1631.1,1075.9c0,12.5-4.6,22.1-13.8,28.7c-9.2,6.6-22,9.9-38.3,9.9c-9,0-16.8-0.7-23.2-2
				c-6.4-1.3-12.3-3.3-17.7-5.8v-22.1c5.6,2.7,12.1,5.1,19.6,7.3c7.5,2.1,14.9,3.2,22,3.2c9.5,0,16.4-1.5,20.6-4.5
				c4.2-3,6.3-7.1,6.3-12.1c0-2.9-0.8-5.4-2.4-7.7c-1.6-2.3-4.6-4.7-8.9-7.1c-4.4-2.5-10.7-5.3-19.2-8.4c-8.2-3.3-15.2-6.6-20.8-9.9
				c-5.6-3.2-10-7.1-13-11.7c-3-4.5-4.5-10.3-4.5-17.5c0-11.1,4.5-19.6,13.4-25.6c9-5.9,20.8-8.9,35.6-8.9c7.8,0,15.1,0.8,22,2.4
				c6.9,1.6,13.6,3.8,20.1,6.7l-8.3,19.3c-5.6-2.4-11.3-4.4-17.1-6.1c-5.9-1.7-11.8-2.5-17.8-2.5c-7.6,0-13.4,1.2-17.4,3.6
				c-4,2.4-5.9,5.7-5.9,10c0,3,1,5.6,2.9,7.9c1.9,2.2,5.1,4.4,9.6,6.7c4.5,2.2,10.7,4.9,18.7,8.1c7.9,3,14.7,6.1,20.3,9.3
				c5.6,3.2,9.9,7.1,12.8,11.7C1629.6,1062.9,1631.1,1068.8,1631.1,1075.9z"/>
		</g>
		<g id="XMLID_4996_">
			<polygon id="XMLID_5000_" fill="#FC9A49" points="184.3,870.6 177.9,881 192.4,881 198.8,870.6 			"/>
			<polygon id="XMLID_4999_" fill="#FC9A49" points="203.1,877.8 194.4,890.7 213.3,890.7 221.2,877.8 			"/>
			<polygon id="XMLID_4998_" fill="#FC9A49" points="357.8,886.1 373.1,870.9 325,870.9 319.5,875.8 298.4,875.8 303.6,865.5 
				269.2,865.5 260.7,879.2 251.2,879.2 256.9,870.6 230.7,870.6 221.2,886.1 236.9,886.5 231.1,897 258.3,897 260.9,890.7 
				281.7,890.7 276.2,895.2 311.5,895.2 320.5,886.1 			"/>
			<polygon id="XMLID_4997_" fill="#11566C" points="373.6,877.6 359.5,890.6 322.8,890.6 316.5,896.4 1715,896.4 1728.4,877.6 			
				"/>
		</g>
	</g>
	
		<g id="TEXT_00000111903995421691881720000001240764165618166675_" display="none" clip-path="url(#SVGID_00000141443659988538977960000007366161767594301853_)">
		
			<text transform="matrix(1 0 0 1 244.8428 839.8591)" display="inline" fill="#11566C" font-family="'Poppins-Bold'" font-size="372.2271px">SANTI</text>
		
			<text transform="matrix(1 0 0 1 707.7163 1112.0641)" display="inline" fill="#FB9949" font-family="'NotoSans-Medium'" font-size="237.9287px">Veículos</text>
		<g id="XMLID_00000023268169171960517120000007262532533072995228_" display="inline">
			<polygon id="XMLID_00000029020452155109112610000007238712647793223816_" fill="#FC9A49" points="184.3,870.6 177.9,881 
				192.4,881 198.8,870.6 			"/>
			<polygon id="XMLID_00000021100703948363660260000009453417906420089778_" fill="#FC9A49" points="203.1,877.8 194.4,890.7 
				213.3,890.7 221.2,877.8 			"/>
			<polygon id="XMLID_00000107573059126838084690000016968310216425189566_" fill="#FC9A49" points="357.8,886.1 373.1,870.9 
				325,870.9 319.5,875.8 298.4,875.8 303.6,865.5 269.2,865.5 260.7,879.2 251.2,879.2 256.9,870.6 230.7,870.6 221.2,886.1 
				236.9,886.5 231.1,897 258.3,897 260.9,890.7 281.7,890.7 276.2,895.2 311.5,895.2 320.5,886.1 			"/>
			<polygon id="XMLID_00000150800407688240132410000017450733916153478058_" fill="#11566C" points="373.6,877.6 359.5,890.6 
				322.8,890.6 316.5,896.4 1715,896.4 1728.4,877.6 			"/>
		</g>
	</g>
</g>
</svg>
