<svg width="64" height="64" viewBox="0 0 64 64" fill="none" xmlns="http://www.w3.org/2000/svg">
<path d="M18.9217 1.39131C18.1797 3.24639 20.1275 7.88407 22.9101 11.2232L25.1362 13.8203L19.1072 19.571C7.69855 30.1449 2.68985 45.171 7.51304 53.7044C10.9449 59.8261 17.4377 62.516 29.7739 62.887C41.8319 63.3507 48.6029 61.6812 53.6116 57.0435C57.0435 53.9826 57.0435 53.8899 57.0435 46.6551C57.0435 40.5333 56.5797 38.5855 54.4464 34.0406C51.4783 28.1044 43.3159 18.7362 38.4928 15.7681L35.3391 13.8203L38.029 9.92465C39.6058 7.79131 41.0899 4.63769 41.3681 2.96812C42.1101 -0.556515 41.2754 -0.74202 33.8551 1.39131C29.4029 2.68987 28.5681 2.68987 25.5072 1.39131C21.1478 -0.371006 19.571 -0.371006 18.9217 1.39131ZM33.0203 26.7131C33.2986 27.5478 34.6899 29.0319 36.2667 29.8667C37.8435 30.7942 38.9565 32.1855 38.9565 33.3913C38.9565 35.8029 38.2145 35.7102 35.5246 33.2058L33.3913 31.258V34.5044C33.3913 37.287 33.7623 37.9362 35.7101 38.4C40.5333 39.6058 40.5333 47.5826 35.8029 48.7884C34.5971 49.0667 33.3913 50.087 33.113 51.1073C32.4638 53.4261 30.6087 53.3333 29.9594 51.0145C29.6812 50.087 28.6609 48.9739 27.6406 48.6029C25.3217 47.8609 23.4667 43.8725 24.7652 42.5739C25.5072 41.8319 26.0638 42.1102 26.8058 43.5015C28.2899 46.1913 29.6812 45.9131 29.6812 42.8522C29.6812 40.9971 28.9391 39.8841 26.8986 38.771C23.0029 36.5449 23.0029 32.0928 26.8058 29.8667C28.3826 29.0319 29.7739 27.5478 30.0522 26.7131C30.2377 25.7855 30.887 25.0435 31.5362 25.0435C32.1855 25.0435 32.8348 25.7855 33.0203 26.7131Z" fill="#11566C"/>
<path d="M27.9188 32.8349C26.8986 34.0407 26.8986 34.6899 27.6406 35.432C29.0319 36.8233 29.8667 35.8957 29.4957 33.2986C29.2174 31.3508 29.1246 31.3508 27.9188 32.8349Z" fill="#11566C"/>
<path d="M33.3913 43.5014C33.3913 45.6348 33.7623 46.1913 34.8754 45.7275C36.4522 45.171 36.2667 41.6464 34.5971 40.9971C33.7623 40.8116 33.3913 41.6464 33.3913 43.5014Z" fill="#11566C"/>
</svg>
