<svg width="64" height="64" viewBox="0 0 64 64" fill="none" xmlns="http://www.w3.org/2000/svg">
<g clip-path="url(#clip0_14_114)">
<path d="M32.875 2.7501C20.9375 3.7251 11 11.5876 7.3125 23.0001C7.0625 23.7876 6.8375 24.4501 6.825 24.4751C6.8 24.4876 6.325 23.8001 5.75 22.9376C5.175 22.0751 4.525 21.2001 4.3 21.0126C3.0625 19.9251 1.0625 20.2876 0.2875 21.7376C-0.0499997 22.3876 -0.0999997 23.5626 0.175 24.1126C0.675 25.0626 6.5125 33.7376 6.85 34.0251C7.3875 34.4751 8.0375 34.6626 8.8375 34.6001C9.4875 34.5376 9.7375 34.4001 14.1625 31.4251C16.7125 29.7126 18.9625 28.1751 19.15 28.0126C20.0375 27.2751 20.2875 25.8751 19.725 24.7876C19.1875 23.7251 17.725 23.1126 16.5875 23.4876C16.35 23.5751 15.2125 24.2751 14.0625 25.0626C12.9 25.8501 11.9375 26.4751 11.9125 26.4626C11.85 26.3876 12.375 24.6376 12.7625 23.6626C14.4375 19.4126 17.1375 15.8876 20.7625 13.1876C30.175 6.1751 43.375 7.1376 51.6875 15.4376C56.175 19.9251 58.625 25.8626 58.625 32.2501C58.625 36.2501 57.8 39.5876 55.925 43.2501C54.8625 45.3001 53.7375 46.8626 52.075 48.5876C49.825 50.9251 48.05 52.2251 45.3125 53.5626C37.175 57.5251 27.875 56.6001 20.5875 51.1001C19.1875 50.0501 17.1125 47.9501 15.9625 46.4251C14.8875 44.9751 14.35 44.6251 13.3 44.6251C11.325 44.6376 10.0375 46.6751 10.9125 48.3876C11.6625 49.8751 14.525 53.0626 16.6875 54.8126C19.9125 57.4376 23.8875 59.4376 27.8625 60.4376C32.55 61.6126 37.3875 61.6126 42.0625 60.4376C49.0375 58.6751 55.1125 54.4001 59.1125 48.4126C61.4125 44.9751 63.0375 40.7501 63.7125 36.5001C64.025 34.4876 64.025 29.7751 63.7125 27.7501C62.2875 18.6126 56.9625 10.8501 49.0375 6.3876C44.225 3.6751 38.2 2.3251 32.875 2.7501Z" fill="#11566C"/>
<path d="M33.525 16.1375C32.875 16.4625 32.2875 17.15 32.1125 17.775C32.0375 18.075 32 20.9125 32.025 25.525C32.0625 32.0625 32.0875 32.85 32.275 33.1875C32.625 33.8125 40.85 42.1125 41.425 42.4125C42.625 43.0375 44.2625 42.6 44.925 41.4625C45.3625 40.7125 45.4375 40.15 45.2 39.3375C45.0125 38.7 44.7875 38.4375 41.2 34.7875L37.3875 30.9125L37.35 24.35L37.3125 17.7875L36.9375 17.1875C36.2125 16.025 34.7 15.5625 33.525 16.1375Z" fill="#11566C"/>
</g>
<defs>
<clipPath id="clip0_14_114">
<rect width="64" height="64" fill="white"/>
</clipPath>
</defs>
</svg>
