<svg width="64" height="64" viewBox="0 0 64 64" fill="none" xmlns="http://www.w3.org/2000/svg">
<g clip-path="url(#clip0_14_92)">
<path d="M20.5875 6.93745C19.25 7.19995 17.775 7.78745 16.6875 8.51245C15.575 9.26245 14.0875 10.8125 13.5 11.8624C13.0875 12.5999 13.05 12.6375 12.65 12.575C11.925 12.4625 9.9875 12.7374 8.925 13.1124C4.7625 14.5499 2 18.4375 2 22.875C2 25.5 2.8875 27.7125 4.6875 29.6125C5.275 30.225 5.75 30.7875 5.75 30.8625C5.75 30.9375 5.275 32.7999 4.7 35.0124L3.6375 39.025L4.3125 40.5749C4.6875 41.4249 4.9625 42.2124 4.9125 42.3249C4.875 42.4249 4.3375 42.8499 3.725 43.2624C3.1125 43.6749 2.575 44.0999 2.5375 44.1999C2.5 44.2999 2.725 44.9374 3.05 45.6249C3.3625 46.2999 3.6 46.9249 3.5625 47.0249C3.525 47.1124 2.9875 47.5124 2.3875 47.9124C1.775 48.3124 1.2375 48.7249 1.2 48.8374C1.15 48.9374 1.375 49.5624 1.6875 50.2249C2.025 50.9249 2.225 51.5124 2.1875 51.6499C2.1375 51.7749 1.6625 52.1124 1.1125 52.3999C0.499998 52.7374 0.0999981 53.0374 0.0499981 53.1874C0.0124981 53.3624 0.337498 54.0624 1.025 55.3124C1.9 56.8749 2.125 57.1874 2.375 57.2249C2.7 57.2624 6.3375 55.2374 6.75 54.7874C6.875 54.6624 8.2875 49.9749 10.0375 43.9499C11.7375 38.1124 13.1875 33.2874 13.275 33.2249C13.3625 33.1749 13.5625 33.1249 13.725 33.1249C14.2375 33.1249 15.9125 32.4999 16.75 31.9999C18.35 31.0624 19.7375 29.6875 20.7125 28.05C21.3625 26.975 21.3625 26.925 20.6 26.8375C19.3875 26.6875 17.6875 26.0125 16.5 25.2125C15.7625 24.7 15.6375 24.525 15.625 23.9749C15.625 23.625 15.7 23.4625 15.95 23.2625C16.475 22.8499 17.05 22.9249 17.95 23.5125C18.8875 24.125 20.2125 24.5999 21.3125 24.7374C22.125 24.825 22.1375 24.825 22.225 24.5125C22.275 24.3375 22.3125 23.4249 22.3 22.5C22.3 20.9375 22.2625 20.7249 21.8875 19.625C21.675 18.9749 21.2625 18.0499 20.975 17.575C19.925 15.7999 17.8 13.9749 16.05 13.3499C15.6125 13.1875 15.25 13.0125 15.25 12.9625C15.25 12.7249 16.0375 11.75 16.8 11.0374C17.7 10.1875 19.2 9.37495 20.4375 9.06245C22.0125 8.66245 24.375 8.92495 25.8375 9.66245C27.3875 10.45 28.675 11.7249 29.5 13.2625L29.875 13.9625L29.125 14.2374C28.1625 14.5875 27.0125 15.6375 26.5625 16.5625C26.05 17.5875 26 18.3624 26.2625 21.1875C26.3875 22.5625 26.475 23.6875 26.4625 23.7C26.45 23.7125 26.15 23.8624 25.8 24.0374C25.0625 24.4124 23.8375 24.75 23.2375 24.75C22.45 24.75 22.325 24.8499 21.9 25.7875C21.675 26.2875 21.5 26.7375 21.5 26.8C21.5 26.8625 22.15 26.875 22.975 26.8375C24.325 26.7875 25.375 26.55 26.5125 26.075C26.675 26 26.725 26.3375 26.9125 28.5875C27.1125 30.9875 27.1625 31.2499 27.5 31.9499C27.8375 32.6374 28.9 33.7374 37.3625 42.1124C46.5375 51.1999 46.8625 51.4999 47.3125 51.4999C47.85 51.4999 47.15 52.1624 57.775 41.6749C64.425 35.1249 64.3125 35.2374 63.825 34.5624C63.6375 34.3124 55.7375 26.4375 48.8125 19.6124C45.6125 16.45 44.8125 15.7374 44.225 15.45C43.4375 15.0875 43.15 15.0499 35.95 14.4C33.0125 14.1375 32.1875 14.025 32.1125 13.875C32.0625 13.775 31.8125 13.2374 31.5625 12.6875C30.3375 9.97495 27.65 7.78745 24.7125 7.07495C23.475 6.77495 21.75 6.72495 20.5875 6.93745ZM14.1625 12.9749C14.625 13.1749 15.025 13.3624 15.0625 13.3875C15.0875 13.4249 15.0125 13.7249 14.8875 14.075C14.425 15.3125 14.425 15.3125 15.175 15.7374C16.3625 16.4 16.9875 17.5125 17 18.95C17 21.0999 15.3125 22.6124 13.075 22.4749C10.9875 22.3375 9.5625 20.7999 9.575 18.6875C9.5875 17.325 10.375 16.15 11.6875 15.5499C12.2875 15.275 12.3375 15.2125 12.475 14.65C12.65 13.875 13.1125 12.625 13.2375 12.625C13.275 12.625 13.7 12.7874 14.1625 12.9749ZM45.0125 26.0375C45.2875 26.25 45.5 26.675 45.5 27.0125C45.5 27.2125 44.7125 28.0875 42.7875 30.0375C41.2875 31.5375 39.95 32.8249 39.8125 32.9C39.125 33.2874 38.25 32.7874 38.25 32.0124C38.25 31.5999 38.45 31.3625 41.1 28.725C43.725 26.0875 43.975 25.875 44.375 25.875C44.6125 25.875 44.9 25.95 45.0125 26.0375ZM51.225 32.1999C51.3875 32.3749 51.5 32.6749 51.5 32.9C51.5 33.2374 51.225 33.5749 49.5375 35.2874C46.725 38.1249 45.7125 38.9999 45.2375 38.9999C44.7 38.9999 44.25 38.5124 44.25 37.9249C44.25 37.4874 44.3875 37.3124 46.35 35.3375C47.5 34.1749 48.825 32.8874 49.3 32.4749C50.0625 31.8124 50.2 31.7374 50.55 31.7999C50.7625 31.8375 51.0625 32.0124 51.225 32.1999Z" fill="#11566C"/>
<path d="M12.55 17.375C12.0625 17.5625 11.625 18.225 11.625 18.7625C11.625 19.5 11.925 19.9875 12.575 20.2625C14.4625 21.1 15.7125 18.3875 13.875 17.4375C13.475 17.2375 12.9625 17.2125 12.55 17.375Z" fill="#11566C"/>
</g>
<defs>
<clipPath id="clip0_14_92">
<rect width="64" height="64" fill="white"/>
</clipPath>
</defs>
</svg>
