<svg width="64" height="64" viewBox="0 0 64 64" fill="none" xmlns="http://www.w3.org/2000/svg">
<path d="M30.5875 0.299995C29.7875 0.637493 29.425 0.887493 28.25 1.96249C27.225 2.89999 25.7125 4.02499 24.5 4.77499C20.875 7 17.1 8.14999 11.9375 8.625C10.9 8.72499 10.0125 8.875 9.475 9.0625C7.3 9.8125 5.6625 11.625 5.0625 13.9375C4.9 14.5375 4.85 15.7625 4.7875 19.875C4.6875 26.6625 4.925 30.7375 5.6875 35.2875C7.35 45.2375 11.9 52.8 19.5 58.2125C23.1875 60.8375 30.025 64 32 64C33.125 64 36.125 62.8625 39.4375 61.1875C42.925 59.425 45.325 57.7875 47.9625 55.3875C52.325 51.425 55.6 45.95 57.3 39.7875C58.8 34.35 59.3375 28.6875 59.2125 19.6875C59.15 15.7375 59.1 14.525 58.9375 13.9375C58.3375 11.625 56.7 9.8125 54.525 9.0625C53.9875 8.875 53.1 8.72499 52.0625 8.625C45.025 7.9875 40.4 6.0625 35.5 1.7375C34.1125 0.512493 33.2625 0.0874939 32.125 0.0374947C31.4875 -7.62939e-06 31.1625 0.0624962 30.5875 0.299995ZM34.375 16.2625C40.5125 17.1125 45.7125 21.75 47.3625 27.8125C48.075 30.425 48.0875 33.4625 47.4125 36C45.925 41.625 41.625 45.925 36 47.4125C33.55 48.075 30.45 48.075 28 47.4125C22.375 45.925 18.075 41.625 16.5875 36C15.925 33.55 15.925 30.45 16.5875 28C18.375 21.25 24.2375 16.4625 31.1875 16.0875C32.0375 16.0375 33.25 16.1125 34.375 16.2625Z" fill="#11566C"/>
<path d="M31.375 19.85C28.3125 20.025 25.75 21.15 23.5375 23.2875C21.1 25.6375 19.8625 28.575 19.8625 32C19.8625 35.425 21.1 38.3625 23.5375 40.7125C25.9375 43.0375 28.675 44.1375 32 44.1375C35.325 44.1375 38.0625 43.0375 40.4625 40.7125C42.9 38.3625 44.1375 35.4125 44.1375 32C44.1375 28.5875 42.8875 25.625 40.4625 23.2875C37.9625 20.8875 34.7125 19.65 31.375 19.85ZM38.75 26.725C39.625 27.1625 40.025 28.3625 39.575 29.225C39.475 29.4125 37.2875 31.65 34.725 34.2125C29.75 39.15 29.7875 39.125 28.775 38.9375C28.4 38.875 27.9625 38.5 26.3375 36.9C25.25 35.8125 24.275 34.7875 24.175 34.6C23.6875 33.6625 24.1625 32.45 25.175 32.0625C26.1375 31.6875 26.5 31.85 27.875 33.2C28.5375 33.85 29.125 34.375 29.2 34.375C29.2625 34.375 31 32.6875 33.0625 30.6125C35.125 28.5375 36.9875 26.775 37.1875 26.675C37.7 26.45 38.225 26.4625 38.75 26.725Z" fill="#11566C"/>
</svg>
