<svg width="64" height="64" viewBox="0 0 64 64" fill="none" xmlns="http://www.w3.org/2000/svg">
<g clip-path="url(#clip0_14_85)">
<path d="M28.9375 0.137486C22.875 0.762486 17.15 3.07499 12.2625 6.84998C10.875 7.91248 7.9125 10.875 6.85 12.2625C4.875 14.8 2.9875 18.1875 1.925 21.0625C1.3375 22.6625 0.587502 25.65 0.300002 27.5625C-0.0249985 29.6625 -0.0249985 34.325 0.300002 36.4375C0.587502 38.325 1.3375 41.325 1.9375 42.95C3 45.8375 4.875 49.2 6.85 51.7375C7.8625 53.05 10.725 55.9375 12 56.95C14.5625 58.9625 18.15 61 21.05 62.0625C22.675 62.6625 25.675 63.4125 27.5625 63.7C29.4125 63.975 34.2125 64.025 35.9375 63.775C41.9625 62.9125 47.0375 60.7875 51.7375 57.15C53.0375 56.15 55.925 53.3 56.95 52C58.9625 49.45 60.9875 45.8625 62.0625 42.95C62.6625 41.325 63.4125 38.325 63.7 36.4375C63.875 35.3125 63.925 34.2 63.925 32C63.925 29.8 63.875 28.6875 63.7 27.5625C63.4125 25.675 62.6625 22.675 62.0625 21.05C60.975 18.1 58.975 14.575 56.95 12C55.9625 10.7625 53.2 7.99998 51.9375 6.99998C47.4375 3.43748 42.275 1.19999 36.5 0.312485C34.925 0.0749855 30.5375 -0.0375137 28.9375 0.137486ZM34.3875 7.74998C45.225 8.84998 54 16.95 55.9875 27.6625L56.1 28.275L51.7625 28.2125C47.075 28.15 46.65 28.1 44.5125 27.3625C42.475 26.6625 40.7875 25.5875 38.95 23.8125C36.6125 21.5625 34.8875 20.825 32 20.825C29.0875 20.825 27.3375 21.6 24.925 23.9375C23.225 25.575 21.4 26.725 19.375 27.4125C17.35 28.1 16.875 28.15 12.2375 28.2125L7.9 28.275L8.075 27.3125C8.65 24.325 9.95 21.1625 11.7125 18.5375C16.7375 11.0125 25.4875 6.84998 34.3875 7.74998ZM33.15 28.3875C34.2375 28.6125 35.125 29.1125 35.9375 29.925C39.1625 33.1625 37.4125 38.625 32.8875 39.4C31.125 39.7 29.3875 39.1375 28.0625 37.8125C25.8375 35.6125 25.8375 32.125 28.0625 29.9375C29.475 28.5375 31.275 28 33.15 28.3875ZM17.9375 39.875C24.2125 41.5 27.775 48.025 25.8 54.2875C25.625 54.825 25.4 55.3 25.3 55.3375C25.05 55.425 23.1 54.7375 21.5625 54.0125C17.575 52.125 14.1625 49.15 11.6 45.3125C10.75 44.025 9.325 41.2 9.4125 40.9625C9.4875 40.75 11.9625 39.9 13.15 39.675C14.3875 39.4375 16.6375 39.525 17.9375 39.875ZM50.625 39.6375C51.6875 39.8 54.5 40.7375 54.5875 40.95C54.625 41.0375 54.3125 41.8125 53.9 42.65C51.4625 47.625 47.375 51.675 42.4375 54.0125C40.9 54.7375 38.95 55.425 38.7 55.3375C38.45 55.2375 37.9375 53.5625 37.75 52.2625C36.9 46.4625 40.9 40.875 46.75 39.6875C47.75 39.4875 49.55 39.4625 50.625 39.6375Z" fill="#11566C"/>
<path d="M31.1 32.2625C30.5625 32.5375 30.125 33.275 30.125 33.875C30.125 34.5 30.5625 35.2125 31.125 35.5C31.3875 35.6375 31.7875 35.75 32 35.75C32.95 35.75 33.875 34.825 33.875 33.875C33.875 33.25 33.4375 32.5375 32.875 32.25C32.2625 31.9375 31.7 31.9375 31.1 32.2625Z" fill="#11566C"/>
</g>
<defs>
<clipPath id="clip0_14_85">
<rect width="64" height="64" fill="white"/>
</clipPath>
</defs>
</svg>
