<svg width="64" height="64" viewBox="0 0 64 64" fill="none" xmlns="http://www.w3.org/2000/svg">
<g clip-path="url(#clip0_14_121)">
<path d="M41.0641 0.162468C40.7266 0.26247 40.1266 0.487469 39.7516 0.687469C39.3766 0.874969 32.7016 4.73747 24.9141 9.26247L10.7766 17.5H7.85161C4.65161 17.5 4.12661 17.575 2.93911 18.25C1.57661 19.025 0.414106 20.675 0.126606 22.2375C-0.0358941 23.1375 -0.0483941 58.1625 0.126606 59.175C0.501606 61.5125 2.48911 63.5 4.82661 63.875C5.28911 63.95 15.1266 64 30.6266 64C58.1516 64 56.6891 64.0375 58.0766 63.2375C59.3766 62.5 60.3141 61.3375 60.8266 59.85C61.0266 59.2875 61.0641 58.775 61.0641 56.2875C61.0641 53.55 61.0516 53.375 60.8016 53.0375C60.3016 52.375 60.3641 52.375 54.3016 52.375C49.8266 52.375 48.4391 52.3375 47.5766 52.1875C43.5141 51.475 40.3141 48.925 38.7266 45.125C38.0391 43.5 37.9391 42.9125 37.9391 40.6875C37.9391 38.9875 37.9766 38.55 38.2266 37.7125C39.4141 33.6125 42.4016 30.6625 46.5641 29.4625C47.3766 29.225 47.9266 29.2 53.7766 29.1375C59.9516 29.0625 60.1141 29.05 60.4641 28.8C61.0766 28.3375 61.1516 27.8625 61.0891 24.875C61.0141 21.4 60.7891 20.675 59.4016 19.275C58.5641 18.4375 57.7516 17.975 56.5641 17.6625L55.7016 17.4375L51.4766 10.0625C47.2391 2.63747 46.6516 1.74997 45.5766 1.01247C44.3641 0.174969 42.4141 -0.187531 41.0641 0.162468ZM43.5641 3.19997C44.0641 3.43747 44.9141 4.26247 44.7891 4.38747C44.7266 4.43747 39.6516 7.39997 33.4891 10.9875L22.3016 17.5H19.5016C17.8016 17.5 16.7516 17.45 16.8266 17.3875C17.0891 17.125 41.0766 3.23747 41.5516 3.06247C42.1391 2.84997 42.9391 2.89997 43.5641 3.19997ZM50.7391 14.6375C51.5766 16.0875 52.2516 17.325 52.2516 17.3875C52.2516 17.45 49.5516 17.5 45.9766 17.5C42.5266 17.5 39.7391 17.4625 39.7891 17.425C39.9141 17.2875 49.0391 12 49.1391 12C49.1891 12 49.9141 13.1875 50.7391 14.6375Z" fill="#11566C"/>
<path d="M47.9017 32.1375C44.8642 32.65 42.1267 35.075 41.1642 38.0875C39.6767 42.775 42.4017 47.775 47.1892 49.15C48.1767 49.4375 48.2892 49.4375 54.3767 49.4375H60.5642L61.3767 49.05C62.7142 48.4125 63.5892 47.3375 63.8767 46C63.9767 45.525 64.0142 43.8125 63.9767 40.3125L63.9392 35.3125L63.6017 34.6C63.1767 33.6875 62.3142 32.825 61.4017 32.4L60.6892 32.0625L54.6267 32.0375C51.2892 32.0375 48.2642 32.075 47.9017 32.1375ZM50.6017 38.075C51.9392 38.625 52.6767 40.275 52.2017 41.6125C51.9017 42.45 51.4517 42.9375 50.6892 43.325C49.2392 44.025 47.6142 43.45 46.8517 41.95C46.3517 40.975 46.6267 39.375 47.4142 38.6625C48.2392 37.9 49.5892 37.65 50.6017 38.075Z" fill="#11566C"/>
</g>
<defs>
<clipPath id="clip0_14_121">
<rect width="64" height="64" fill="white"/>
</clipPath>
</defs>
</svg>
